<svg width="234" height="326" viewBox="0 0 234 326" fill="none" xmlns="http://www.w3.org/2000/svg">
<path d="M10.2143 2H223.786L232 8.03891V316.828L223.786 323.27H9.80357L2 316.828V8.4415L10.2143 2Z" fill="#F1CA00" stroke="black" stroke-width="4"/>
<line y1="-2.5" x2="8.42597" y2="-2.5" transform="matrix(-0.808787 0.588101 -0.61187 -0.790959 10.5185 3.65161)" stroke="#E0BD04" stroke-width="5"/>
<line x1="10.5185" y1="5.28101" x2="223.481" y2="5.28101" stroke="#F2DE01" stroke-width="5"/>
<line y1="-2.5" x2="10.1208" y2="-2.5" transform="matrix(-0.757513 -0.65282 0.675792 -0.737092 13.0741 319.14)" stroke="#644F02" stroke-width="5"/>
<path d="M5.83795 9.43844L5.83795 314.185" stroke="#BE9B00" stroke-width="5"/>
<line y1="-2.5" x2="10.7805" y2="-2.5" transform="matrix(0.79018 -0.612875 0.636452 0.771316 223.481 321.618)" stroke="#1F1204" stroke-width="5"/>
<path d="M229.019 10.2588L221.976 5.11169" stroke="#766824" stroke-width="5"/>
<path d="M10.5105 319.553L223.481 319.553" stroke="#372601" stroke-width="5"/>
<path d="M228.167 314.598L228.167 8.59015" stroke="#9C8200" stroke-width="5"/>
<g filter="url(#filter0_i_44_13)">
<ellipse cx="31.3889" cy="30.4929" rx="10.6481" ry="10.3236" fill="#97810F"/>
</g>
<ellipse cx="31.3889" cy="30.4929" rx="10.6481" ry="10.3236" stroke="url(#paint0_linear_44_13)" stroke-width="4"/>
<g filter="url(#filter1_i_44_13)">
<ellipse cx="202.611" cy="30.4929" rx="10.6481" ry="10.3236" fill="#97810F"/>
</g>
<ellipse cx="202.611" cy="30.4929" rx="10.6481" ry="10.3236" stroke="url(#paint1_linear_44_13)" stroke-width="4"/>
<g filter="url(#filter2_i_44_13)">
<ellipse cx="31.3889" cy="294.777" rx="10.6481" ry="10.3236" fill="#97810F"/>
</g>
<ellipse cx="31.3889" cy="294.777" rx="10.6481" ry="10.3236" stroke="url(#paint2_linear_44_13)" stroke-width="4"/>
<g filter="url(#filter3_i_44_13)">
<ellipse cx="202.611" cy="294.777" rx="10.6481" ry="10.3236" fill="#97810F"/>
</g>
<ellipse cx="202.611" cy="294.777" rx="10.6481" ry="10.3236" stroke="url(#paint3_linear_44_13)" stroke-width="4"/>
<g filter="url(#filter4_d_44_13)">
<path d="M96.5556 208.884L100.389 205.994H143.407L145.963 208.884V234.074L143.407 237.378H100.389L96.5556 234.074V208.884Z" fill="#F6F7F2"/>
</g>
<g filter="url(#filter5_d_44_13)">
<path d="M55.982 62.2898H103.848H170.125L194.519 79.8942V114.223V146.351L175.188 165.716H147.667L145.732 168.003V193.193L142.981 196.083H100.389L96.4844 193.193V165.716V146.351L119.037 125.666H142.981L145.732 122.58V97.39L142.981 94.4179H119.037H87.6111L84.0575 97.39V122.58L80.3704 125.666H44.5926L40.3333 122.58V79.8942L55.982 62.2898Z" fill="#F6F7F2"/>
</g>
<line y1="-1.5" x2="31.3563" y2="-1.5" transform="matrix(0.815006 0.579453 -0.603256 0.797548 168.111 62.2898)" stroke="#E4E3DA" stroke-width="3"/>
<path d="M194.093 78.8075L195.796 146.53" stroke="#B6B3AC" stroke-width="3"/>
<path d="M195.796 145.704L175.352 166.351" stroke="#A39D93" stroke-width="3"/>
<line y1="-1.5" x2="4.74593" y2="-1.5" transform="matrix(0.717964 -0.69608 0.717964 0.69608 146.815 169.655)" stroke="#9D978F" stroke-width="3"/>
<line x1="145.759" y1="167.177" x2="145.759" y2="192.78" stroke="#B3B0A8" stroke-width="3"/>
<line y1="-1.5" x2="4.74593" y2="-1.5" transform="matrix(0.717964 -0.69608 0.717964 0.69608 143.407 196.083)" stroke="#A19E97" stroke-width="3"/>
<line x1="99.963" y1="194.583" x2="143.407" y2="194.583" stroke="#A4A29E" stroke-width="3"/>
<line x1="98.0556" y1="145.704" x2="98.0556" y2="192.78" stroke="#F5F6EA" stroke-width="3"/>
<line y1="-1.5" x2="31.4657" y2="-1.5" transform="matrix(0.730954 -0.682427 0.704704 0.709502 98.2593 148.182)" stroke="white" stroke-width="3"/>
<line x1="119.556" y1="125.209" x2="143.407" y2="125.209" stroke="#FBFCFD" stroke-width="3"/>
<line y1="-1.5" x2="5.39631" y2="-1.5" transform="matrix(-0.790714 0.612186 -0.63577 -0.771879 84.6373 120.927)" stroke="#A49F97" stroke-width="3"/>
<path d="M146.389 98.2157V124.231" stroke="#F4F4E9" stroke-width="3"/>
<line x1="82.0741" y1="124.905" x2="44.5926" y2="124.905" stroke="#A19B93" stroke-width="3"/>
<g filter="url(#filter6_d_44_13)">
<line x1="176.63" y1="166.2" x2="147.667" y2="166.2" stroke="#9E9891" stroke-width="3"/>
</g>
<line x1="41.8333" y1="79.6333" x2="41.8333" y2="122.579" stroke="#F5F6ED" stroke-width="3"/>
<line x1="85.2778" y1="96.9768" x2="85.2778" y2="122.579" stroke="#C1BFC1" stroke-width="3"/>
<line y1="-1.5" x2="5.39024" y2="-1.5" transform="matrix(0.79018 0.612875 -0.636452 0.771316 40.3333 122.58)" stroke="#C3C3BE" stroke-width="3"/>
<line x1="99.963" y1="206.146" x2="143.407" y2="206.146" stroke="#FFFFFC" stroke-width="3"/>
<path d="M142.556 205.994L146.337 208.935" stroke="#E1E2DA" stroke-width="3"/>
<line x1="145.759" y1="207.646" x2="145.759" y2="234.9" stroke="#B6B2AA" stroke-width="3"/>
<line y1="-1.5" x2="5.35375" y2="-1.5" transform="matrix(-0.636452 0.771316 -0.79018 -0.612875 145.111 233.248)" stroke="#A29F98" stroke-width="3"/>
<line y1="-1.5" x2="4.92748" y2="-1.5" transform="matrix(0.864388 -0.502825 0.526241 0.850335 142.556 126.709)" stroke="white" stroke-width="3"/>
<path d="M96.1296 232.422L102.944 238.204" stroke="#C8C9C4" stroke-width="3"/>
<line y1="-1.5" x2="24.7881" y2="-1.5" transform="matrix(-0.0189213 0.999821 -0.999842 -0.0177857 95.7037 208.472)" stroke="#F5F6EA" stroke-width="3"/>
<line y1="-1.5" x2="5.65389" y2="-1.5" transform="matrix(-0.81431 0.580431 -0.60423 -0.79681 100.308 205.168)" stroke="white" stroke-width="3"/>
<line x1="102.519" y1="237.529" x2="143.407" y2="237.529" stroke="#9F9B94" stroke-width="3"/>
<line x1="88.8889" y1="94.651" x2="144.259" y2="94.651" stroke="#AFABA3" stroke-width="3"/>
<line y1="-1.5" x2="4.74593" y2="-1.5" transform="matrix(0.717964 0.69608 -0.717964 0.69608 96.5556 192.78)" stroke="#C4C4BF" stroke-width="3"/>
<line y1="-1.5" x2="6.60578" y2="-1.5" transform="matrix(-0.880073 0.474839 -0.497822 -0.867279 89.2401 93.3439)" stroke="#9F9A93" stroke-width="3"/>
<line y1="-1.5" x2="25.0598" y2="-1.5" transform="matrix(-0.611869 0.790959 -0.808787 -0.588101 55.6667 59.812)" stroke="white" stroke-width="3"/>
<path d="M142.981 94.499L147.026 98.7672" stroke="#D3D2CA" stroke-width="3"/>
<line x1="55.6667" y1="60.7898" x2="169.815" y2="60.7898" stroke="white" stroke-width="3"/>
<defs>
<filter id="filter0_i_44_13" x="18.7407" y="18.1693" width="27.2963" height="27.6472" filterUnits="userSpaceOnUse" color-interpolation-filters="sRGB">
<feFlood flood-opacity="0" result="BackgroundImageFix"/>
<feBlend mode="normal" in="SourceGraphic" in2="BackgroundImageFix" result="shape"/>
<feColorMatrix in="SourceAlpha" type="matrix" values="0 0 0 0 0 0 0 0 0 0 0 0 0 0 0 0 0 0 127 0" result="hardAlpha"/>
<feMorphology radius="3" operator="erode" in="SourceAlpha" result="effect1_innerShadow_44_13"/>
<feOffset dx="2" dy="4"/>
<feComposite in2="hardAlpha" operator="arithmetic" k2="-1" k3="1"/>
<feColorMatrix type="matrix" values="0 0 0 0 0.252083 0 0 0 0 0.212593 0 0 0 0 0.0498915 0 0 0 0.75 0"/>
<feBlend mode="normal" in2="shape" result="effect1_innerShadow_44_13"/>
</filter>
<filter id="filter1_i_44_13" x="189.963" y="18.1693" width="27.2963" height="27.6472" filterUnits="userSpaceOnUse" color-interpolation-filters="sRGB">
<feFlood flood-opacity="0" result="BackgroundImageFix"/>
<feBlend mode="normal" in="SourceGraphic" in2="BackgroundImageFix" result="shape"/>
<feColorMatrix in="SourceAlpha" type="matrix" values="0 0 0 0 0 0 0 0 0 0 0 0 0 0 0 0 0 0 127 0" result="hardAlpha"/>
<feMorphology radius="3" operator="erode" in="SourceAlpha" result="effect1_innerShadow_44_13"/>
<feOffset dx="2" dy="4"/>
<feComposite in2="hardAlpha" operator="arithmetic" k2="-1" k3="1"/>
<feColorMatrix type="matrix" values="0 0 0 0 0.252083 0 0 0 0 0.212593 0 0 0 0 0.0498915 0 0 0 0.75 0"/>
<feBlend mode="normal" in2="shape" result="effect1_innerShadow_44_13"/>
</filter>
<filter id="filter2_i_44_13" x="18.7407" y="282.453" width="27.2963" height="27.6472" filterUnits="userSpaceOnUse" color-interpolation-filters="sRGB">
<feFlood flood-opacity="0" result="BackgroundImageFix"/>
<feBlend mode="normal" in="SourceGraphic" in2="BackgroundImageFix" result="shape"/>
<feColorMatrix in="SourceAlpha" type="matrix" values="0 0 0 0 0 0 0 0 0 0 0 0 0 0 0 0 0 0 127 0" result="hardAlpha"/>
<feMorphology radius="3" operator="erode" in="SourceAlpha" result="effect1_innerShadow_44_13"/>
<feOffset dx="2" dy="4"/>
<feComposite in2="hardAlpha" operator="arithmetic" k2="-1" k3="1"/>
<feColorMatrix type="matrix" values="0 0 0 0 0.252083 0 0 0 0 0.212593 0 0 0 0 0.0498915 0 0 0 0.75 0"/>
<feBlend mode="normal" in2="shape" result="effect1_innerShadow_44_13"/>
</filter>
<filter id="filter3_i_44_13" x="189.963" y="282.453" width="27.2963" height="27.6472" filterUnits="userSpaceOnUse" color-interpolation-filters="sRGB">
<feFlood flood-opacity="0" result="BackgroundImageFix"/>
<feBlend mode="normal" in="SourceGraphic" in2="BackgroundImageFix" result="shape"/>
<feColorMatrix in="SourceAlpha" type="matrix" values="0 0 0 0 0 0 0 0 0 0 0 0 0 0 0 0 0 0 127 0" result="hardAlpha"/>
<feMorphology radius="3" operator="erode" in="SourceAlpha" result="effect1_innerShadow_44_13"/>
<feOffset dx="2" dy="4"/>
<feComposite in2="hardAlpha" operator="arithmetic" k2="-1" k3="1"/>
<feColorMatrix type="matrix" values="0 0 0 0 0.252083 0 0 0 0 0.212593 0 0 0 0 0.0498915 0 0 0 0.75 0"/>
<feBlend mode="normal" in2="shape" result="effect1_innerShadow_44_13"/>
</filter>
<filter id="filter4_d_44_13" x="96.5556" y="205.994" width="58.4074" height="42.3837" filterUnits="userSpaceOnUse" color-interpolation-filters="sRGB">
<feFlood flood-opacity="0" result="BackgroundImageFix"/>
<feColorMatrix in="SourceAlpha" type="matrix" values="0 0 0 0 0 0 0 0 0 0 0 0 0 0 0 0 0 0 127 0" result="hardAlpha"/>
<feOffset dx="8" dy="10"/>
<feGaussianBlur stdDeviation="0.5"/>
<feComposite in2="hardAlpha" operator="out"/>
<feColorMatrix type="matrix" values="0 0 0 0 0 0 0 0 0 0 0 0 0 0 0 0 0 0 0.25 0"/>
<feBlend mode="normal" in2="BackgroundImageFix" result="effect1_dropShadow_44_13"/>
<feBlend mode="normal" in="SourceGraphic" in2="effect1_dropShadow_44_13" result="shape"/>
</filter>
<filter id="filter5_d_44_13" x="40.3333" y="62.2898" width="163.185" height="144.794" filterUnits="userSpaceOnUse" color-interpolation-filters="sRGB">
<feFlood flood-opacity="0" result="BackgroundImageFix"/>
<feColorMatrix in="SourceAlpha" type="matrix" values="0 0 0 0 0 0 0 0 0 0 0 0 0 0 0 0 0 0 127 0" result="hardAlpha"/>
<feOffset dx="8" dy="10"/>
<feGaussianBlur stdDeviation="0.5"/>
<feComposite in2="hardAlpha" operator="out"/>
<feColorMatrix type="matrix" values="0 0 0 0 0 0 0 0 0 0 0 0 0 0 0 0 0 0 0.25 0"/>
<feBlend mode="normal" in2="BackgroundImageFix" result="effect1_dropShadow_44_13"/>
<feBlend mode="normal" in="SourceGraphic" in2="effect1_dropShadow_44_13" result="shape"/>
</filter>
<filter id="filter6_d_44_13" x="143.667" y="164.7" width="36.963" height="11" filterUnits="userSpaceOnUse" color-interpolation-filters="sRGB">
<feFlood flood-opacity="0" result="BackgroundImageFix"/>
<feColorMatrix in="SourceAlpha" type="matrix" values="0 0 0 0 0 0 0 0 0 0 0 0 0 0 0 0 0 0 127 0" result="hardAlpha"/>
<feOffset dy="4"/>
<feGaussianBlur stdDeviation="2"/>
<feComposite in2="hardAlpha" operator="out"/>
<feColorMatrix type="matrix" values="0 0 0 0 0 0 0 0 0 0 0 0 0 0 0 0 0 0 0.25 0"/>
<feBlend mode="normal" in2="BackgroundImageFix" result="effect1_dropShadow_44_13"/>
<feBlend mode="normal" in="SourceGraphic" in2="effect1_dropShadow_44_13" result="shape"/>
</filter>
<linearGradient id="paint0_linear_44_13" x1="31.3889" y1="20.1693" x2="34.0641" y2="33.9659" gradientUnits="userSpaceOnUse">
<stop/>
<stop offset="1" stop-color="#F2D042" stop-opacity="0.87"/>
</linearGradient>
<linearGradient id="paint1_linear_44_13" x1="202.611" y1="20.1693" x2="205.286" y2="33.9659" gradientUnits="userSpaceOnUse">
<stop/>
<stop offset="1" stop-color="#F2D042" stop-opacity="0.87"/>
</linearGradient>
<linearGradient id="paint2_linear_44_13" x1="31.3889" y1="284.453" x2="34.0641" y2="298.25" gradientUnits="userSpaceOnUse">
<stop/>
<stop offset="1" stop-color="#F2D042" stop-opacity="0.87"/>
</linearGradient>
<linearGradient id="paint3_linear_44_13" x1="202.611" y1="284.453" x2="205.286" y2="298.25" gradientUnits="userSpaceOnUse">
<stop/>
<stop offset="1" stop-color="#F2D042" stop-opacity="0.87"/>
</linearGradient>
</defs>
</svg>
