<svg width="234" height="325" viewBox="0 0 234 325" fill="none" xmlns="http://www.w3.org/2000/svg">
<path d="M10.2143 2H223.786L232 8.03383V316.564L223.786 323H9.80357L2 316.564V8.43609L10.2143 2Z" fill="#F1CA00" stroke="black" stroke-width="4"/>
<line y1="-2.5" x2="8.42352" y2="-2.5" transform="matrix(-0.809022 0.587778 -0.612191 -0.79071 10.5185 3.65027)" stroke="#E0BD04" stroke-width="5"/>
<line x1="10.5185" y1="5.27612" x2="223.481" y2="5.27612" stroke="#F2DE01" stroke-width="5"/>
<line y1="-2.5" x2="10.1172" y2="-2.5" transform="matrix(-0.757784 -0.652506 0.6761 -0.736809 13.0741 318.874)" stroke="#644F02" stroke-width="5"/>
<path d="M5.83795 9.43221L5.83795 313.923" stroke="#BE9B00" stroke-width="5"/>
<line y1="-2.5" x2="10.7771" y2="-2.5" transform="matrix(0.790429 -0.612554 0.636771 0.771053 223.481 321.35)" stroke="#1F1204" stroke-width="5"/>
<path d="M229.019 10.2518L221.976 5.10903" stroke="#766824" stroke-width="5"/>
<path d="M10.5105 319.287L223.481 319.287" stroke="#372601" stroke-width="5"/>
<path d="M228.167 314.335L228.167 8.58458" stroke="#9C8200" stroke-width="5"/>
<g filter="url(#filter0_i_44_13)">
<ellipse cx="31.3889" cy="30.469" rx="10.6481" ry="10.3149" fill="#97810F"/>
</g>
<ellipse cx="31.3889" cy="30.469" rx="10.6481" ry="10.3149" stroke="url(#paint0_linear_44_13)" stroke-width="4"/>
<g filter="url(#filter1_i_44_13)">
<ellipse cx="202.611" cy="30.469" rx="10.6481" ry="10.3149" fill="#97810F"/>
</g>
<ellipse cx="202.611" cy="30.469" rx="10.6481" ry="10.3149" stroke="url(#paint1_linear_44_13)" stroke-width="4"/>
<g filter="url(#filter2_i_44_13)">
<ellipse cx="31.3889" cy="294.531" rx="10.6481" ry="10.3149" fill="#97810F"/>
</g>
<ellipse cx="31.3889" cy="294.531" rx="10.6481" ry="10.3149" stroke="url(#paint2_linear_44_13)" stroke-width="4"/>
<g filter="url(#filter3_i_44_13)">
<ellipse cx="202.611" cy="294.531" rx="10.6481" ry="10.3149" fill="#97810F"/>
</g>
<ellipse cx="202.611" cy="294.531" rx="10.6481" ry="10.3149" stroke="url(#paint3_linear_44_13)" stroke-width="4"/>
<g filter="url(#filter4_d_44_13)">
<path d="M96.5556 208.711L100.389 205.823H143.407L145.963 208.711V233.879L143.407 237.18H100.389L96.5556 233.879V208.711Z" fill="#F6F7F2"/>
</g>
<g filter="url(#filter5_d_44_13)">
<path d="M55.982 62.2391H103.848H170.125L194.519 79.8288V114.129V146.23L175.188 165.578H147.667L145.732 167.864V193.032L142.981 195.92H100.389L96.4844 193.032V165.578V146.23L119.037 125.562H142.981L145.732 122.478V97.3098L142.981 94.3402H119.037H87.6111L84.0575 97.3098V122.478L80.3704 125.562H44.5926L40.3333 122.478V79.8288L55.982 62.2391Z" fill="#F6F7F2"/>
</g>
<line y1="-1.5" x2="31.3475" y2="-1.5" transform="matrix(0.815235 0.57913 -0.603579 0.797304 168.111 62.2391)" stroke="#E4E3DA" stroke-width="3"/>
<path d="M194.093 78.743L195.796 146.409" stroke="#B6B3AC" stroke-width="3"/>
<path d="M195.796 145.583L175.352 166.213" stroke="#A39D93" stroke-width="3"/>
<line y1="-1.5" x2="4.744" y2="-1.5" transform="matrix(0.718257 -0.695778 0.718257 0.695778 146.815 169.514)" stroke="#9D978F" stroke-width="3"/>
<line x1="145.759" y1="167.039" x2="145.759" y2="192.62" stroke="#B3B0A8" stroke-width="3"/>
<line y1="-1.5" x2="4.744" y2="-1.5" transform="matrix(0.718257 -0.695778 0.718257 0.695778 143.407 195.921)" stroke="#A19E97" stroke-width="3"/>
<line x1="99.963" y1="194.421" x2="143.407" y2="194.421" stroke="#A4A29E" stroke-width="3"/>
<line x1="98.0556" y1="145.583" x2="98.0556" y2="192.619" stroke="#F5F6EA" stroke-width="3"/>
<line y1="-1.5" x2="31.4534" y2="-1.5" transform="matrix(0.73124 -0.68212 0.705002 0.709205 98.2593 148.059)" stroke="white" stroke-width="3"/>
<line x1="119.556" y1="125.104" x2="143.407" y2="125.104" stroke="#FBFCFD" stroke-width="3"/>
<line y1="-1.5" x2="5.39462" y2="-1.5" transform="matrix(-0.790963 0.611864 -0.636088 -0.771616 84.6373 120.828)" stroke="#A49F97" stroke-width="3"/>
<path d="M146.389 98.1349V124.128" stroke="#F4F4E9" stroke-width="3"/>
<line x1="82.0741" y1="124.803" x2="44.5926" y2="124.803" stroke="#A19B93" stroke-width="3"/>
<g filter="url(#filter6_d_44_13)">
<line x1="176.63" y1="166.063" x2="147.667" y2="166.063" stroke="#9E9891" stroke-width="3"/>
</g>
<line x1="41.8333" y1="79.5681" x2="41.8333" y2="122.478" stroke="#F5F6ED" stroke-width="3"/>
<line x1="85.2778" y1="96.897" x2="85.2778" y2="122.478" stroke="#C1BFC1" stroke-width="3"/>
<line y1="-1.5" x2="5.38854" y2="-1.5" transform="matrix(0.790429 0.612554 -0.636771 0.771053 40.3333 122.478)" stroke="#C3C3BE" stroke-width="3"/>
<line x1="99.963" y1="205.973" x2="143.407" y2="205.973" stroke="#FFFFFC" stroke-width="3"/>
<path d="M142.556 205.823L146.337 208.761" stroke="#E1E2DA" stroke-width="3"/>
<line x1="145.759" y1="207.473" x2="145.759" y2="234.705" stroke="#B6B2AA" stroke-width="3"/>
<line y1="-1.5" x2="5.35108" y2="-1.5" transform="matrix(-0.636771 0.771053 -0.790429 -0.612554 145.111 233.054)" stroke="#A29F98" stroke-width="3"/>
<line y1="-1.5" x2="4.92644" y2="-1.5" transform="matrix(0.864572 -0.502509 0.526561 0.850137 142.556 126.604)" stroke="white" stroke-width="3"/>
<path d="M96.1296 232.229L102.944 238.005" stroke="#C8C9C4" stroke-width="3"/>
<line y1="-1.5" x2="24.7673" y2="-1.5" transform="matrix(-0.0189372 0.999821 -0.999842 -0.0177708 95.7037 208.298)" stroke="#F5F6EA" stroke-width="3"/>
<line y1="-1.5" x2="5.65229" y2="-1.5" transform="matrix(-0.81454 0.580107 -0.604553 -0.796565 100.308 204.997)" stroke="white" stroke-width="3"/>
<line x1="102.519" y1="237.33" x2="143.407" y2="237.33" stroke="#9F9B94" stroke-width="3"/>
<line x1="88.8889" y1="94.5719" x2="144.259" y2="94.5719" stroke="#AFABA3" stroke-width="3"/>
<line y1="-1.5" x2="4.744" y2="-1.5" transform="matrix(0.718257 0.695778 -0.718257 0.695778 96.5556 192.62)" stroke="#C4C4BF" stroke-width="3"/>
<line y1="-1.5" x2="6.60453" y2="-1.5" transform="matrix(-0.880239 0.47453 -0.498137 -0.867099 89.2401 93.2671)" stroke="#9F9A93" stroke-width="3"/>
<line y1="-1.5" x2="25.0466" y2="-1.5" transform="matrix(-0.612191 0.79071 -0.809022 -0.587778 55.6667 59.7634)" stroke="white" stroke-width="3"/>
<path d="M142.981 94.4213L147.026 98.6859" stroke="#D3D2CA" stroke-width="3"/>
<line x1="55.6667" y1="60.7391" x2="169.815" y2="60.7391" stroke="white" stroke-width="3"/>
<defs>
<filter id="filter0_i_44_13" x="18.7407" y="18.1541" width="27.2963" height="27.6298" filterUnits="userSpaceOnUse" color-interpolation-filters="sRGB">
<feFlood flood-opacity="0" result="BackgroundImageFix"/>
<feBlend mode="normal" in="SourceGraphic" in2="BackgroundImageFix" result="shape"/>
<feColorMatrix in="SourceAlpha" type="matrix" values="0 0 0 0 0 0 0 0 0 0 0 0 0 0 0 0 0 0 127 0" result="hardAlpha"/>
<feMorphology radius="3" operator="erode" in="SourceAlpha" result="effect1_innerShadow_44_13"/>
<feOffset dx="2" dy="4"/>
<feComposite in2="hardAlpha" operator="arithmetic" k2="-1" k3="1"/>
<feColorMatrix type="matrix" values="0 0 0 0 0.252083 0 0 0 0 0.212593 0 0 0 0 0.0498915 0 0 0 0.75 0"/>
<feBlend mode="normal" in2="shape" result="effect1_innerShadow_44_13"/>
</filter>
<filter id="filter1_i_44_13" x="189.963" y="18.1541" width="27.2963" height="27.6298" filterUnits="userSpaceOnUse" color-interpolation-filters="sRGB">
<feFlood flood-opacity="0" result="BackgroundImageFix"/>
<feBlend mode="normal" in="SourceGraphic" in2="BackgroundImageFix" result="shape"/>
<feColorMatrix in="SourceAlpha" type="matrix" values="0 0 0 0 0 0 0 0 0 0 0 0 0 0 0 0 0 0 127 0" result="hardAlpha"/>
<feMorphology radius="3" operator="erode" in="SourceAlpha" result="effect1_innerShadow_44_13"/>
<feOffset dx="2" dy="4"/>
<feComposite in2="hardAlpha" operator="arithmetic" k2="-1" k3="1"/>
<feColorMatrix type="matrix" values="0 0 0 0 0.252083 0 0 0 0 0.212593 0 0 0 0 0.0498915 0 0 0 0.75 0"/>
<feBlend mode="normal" in2="shape" result="effect1_innerShadow_44_13"/>
</filter>
<filter id="filter2_i_44_13" x="18.7407" y="282.216" width="27.2963" height="27.6298" filterUnits="userSpaceOnUse" color-interpolation-filters="sRGB">
<feFlood flood-opacity="0" result="BackgroundImageFix"/>
<feBlend mode="normal" in="SourceGraphic" in2="BackgroundImageFix" result="shape"/>
<feColorMatrix in="SourceAlpha" type="matrix" values="0 0 0 0 0 0 0 0 0 0 0 0 0 0 0 0 0 0 127 0" result="hardAlpha"/>
<feMorphology radius="3" operator="erode" in="SourceAlpha" result="effect1_innerShadow_44_13"/>
<feOffset dx="2" dy="4"/>
<feComposite in2="hardAlpha" operator="arithmetic" k2="-1" k3="1"/>
<feColorMatrix type="matrix" values="0 0 0 0 0.252083 0 0 0 0 0.212593 0 0 0 0 0.0498915 0 0 0 0.75 0"/>
<feBlend mode="normal" in2="shape" result="effect1_innerShadow_44_13"/>
</filter>
<filter id="filter3_i_44_13" x="189.963" y="282.216" width="27.2963" height="27.6298" filterUnits="userSpaceOnUse" color-interpolation-filters="sRGB">
<feFlood flood-opacity="0" result="BackgroundImageFix"/>
<feBlend mode="normal" in="SourceGraphic" in2="BackgroundImageFix" result="shape"/>
<feColorMatrix in="SourceAlpha" type="matrix" values="0 0 0 0 0 0 0 0 0 0 0 0 0 0 0 0 0 0 127 0" result="hardAlpha"/>
<feMorphology radius="3" operator="erode" in="SourceAlpha" result="effect1_innerShadow_44_13"/>
<feOffset dx="2" dy="4"/>
<feComposite in2="hardAlpha" operator="arithmetic" k2="-1" k3="1"/>
<feColorMatrix type="matrix" values="0 0 0 0 0.252083 0 0 0 0 0.212593 0 0 0 0 0.0498915 0 0 0 0.75 0"/>
<feBlend mode="normal" in2="shape" result="effect1_innerShadow_44_13"/>
</filter>
<filter id="filter4_d_44_13" x="96.5556" y="205.823" width="58.4074" height="42.3573" filterUnits="userSpaceOnUse" color-interpolation-filters="sRGB">
<feFlood flood-opacity="0" result="BackgroundImageFix"/>
<feColorMatrix in="SourceAlpha" type="matrix" values="0 0 0 0 0 0 0 0 0 0 0 0 0 0 0 0 0 0 127 0" result="hardAlpha"/>
<feOffset dx="8" dy="10"/>
<feGaussianBlur stdDeviation="0.5"/>
<feComposite in2="hardAlpha" operator="out"/>
<feColorMatrix type="matrix" values="0 0 0 0 0 0 0 0 0 0 0 0 0 0 0 0 0 0 0.25 0"/>
<feBlend mode="normal" in2="BackgroundImageFix" result="effect1_dropShadow_44_13"/>
<feBlend mode="normal" in="SourceGraphic" in2="effect1_dropShadow_44_13" result="shape"/>
</filter>
<filter id="filter5_d_44_13" x="40.3333" y="62.2391" width="163.185" height="144.681" filterUnits="userSpaceOnUse" color-interpolation-filters="sRGB">
<feFlood flood-opacity="0" result="BackgroundImageFix"/>
<feColorMatrix in="SourceAlpha" type="matrix" values="0 0 0 0 0 0 0 0 0 0 0 0 0 0 0 0 0 0 127 0" result="hardAlpha"/>
<feOffset dx="8" dy="10"/>
<feGaussianBlur stdDeviation="0.5"/>
<feComposite in2="hardAlpha" operator="out"/>
<feColorMatrix type="matrix" values="0 0 0 0 0 0 0 0 0 0 0 0 0 0 0 0 0 0 0.25 0"/>
<feBlend mode="normal" in2="BackgroundImageFix" result="effect1_dropShadow_44_13"/>
<feBlend mode="normal" in="SourceGraphic" in2="effect1_dropShadow_44_13" result="shape"/>
</filter>
<filter id="filter6_d_44_13" x="143.667" y="164.563" width="36.963" height="11" filterUnits="userSpaceOnUse" color-interpolation-filters="sRGB">
<feFlood flood-opacity="0" result="BackgroundImageFix"/>
<feColorMatrix in="SourceAlpha" type="matrix" values="0 0 0 0 0 0 0 0 0 0 0 0 0 0 0 0 0 0 127 0" result="hardAlpha"/>
<feOffset dy="4"/>
<feGaussianBlur stdDeviation="2"/>
<feComposite in2="hardAlpha" operator="out"/>
<feColorMatrix type="matrix" values="0 0 0 0 0 0 0 0 0 0 0 0 0 0 0 0 0 0 0.25 0"/>
<feBlend mode="normal" in2="BackgroundImageFix" result="effect1_dropShadow_44_13"/>
<feBlend mode="normal" in="SourceGraphic" in2="effect1_dropShadow_44_13" result="shape"/>
</filter>
<linearGradient id="paint0_linear_44_13" x1="31.3889" y1="20.1541" x2="34.0598" y2="33.9399" gradientUnits="userSpaceOnUse">
<stop/>
<stop offset="1" stop-color="#F2D042" stop-opacity="0.87"/>
</linearGradient>
<linearGradient id="paint1_linear_44_13" x1="202.611" y1="20.1541" x2="205.282" y2="33.9399" gradientUnits="userSpaceOnUse">
<stop/>
<stop offset="1" stop-color="#F2D042" stop-opacity="0.87"/>
</linearGradient>
<linearGradient id="paint2_linear_44_13" x1="31.3889" y1="284.216" x2="34.0598" y2="298.002" gradientUnits="userSpaceOnUse">
<stop/>
<stop offset="1" stop-color="#F2D042" stop-opacity="0.87"/>
</linearGradient>
<linearGradient id="paint3_linear_44_13" x1="202.611" y1="284.216" x2="205.282" y2="298.002" gradientUnits="userSpaceOnUse">
<stop/>
<stop offset="1" stop-color="#F2D042" stop-opacity="0.87"/>
</linearGradient>
</defs>
</svg>
