<svg width="274" height="393" viewBox="0 0 274 393" fill="none" xmlns="http://www.w3.org/2000/svg">
<path d="M11.6429 2H262.357L272 9.31203V383.201L262.357 391H11.1607L2 383.201V9.7995L11.6429 2Z" fill="#F1CA00" stroke="black" stroke-width="4"/>
<line x1="13.5" y1="6" x2="5.5" y2="12" stroke="#E0BD04" stroke-width="5"/>
<line x1="12" y1="6.5" x2="262" y2="6.5" stroke="#F2DE01" stroke-width="5"/>
<line x1="13.3391" y1="387.869" x2="4.33909" y2="379.869" stroke="#644F02" stroke-width="5"/>
<path d="M6.50541 11.0068L6.50541 380" stroke="#BE9B00" stroke-width="5"/>
<line x1="260.438" y1="387.048" x2="270.438" y2="379.048" stroke="#1F1204" stroke-width="5"/>
<path d="M268.5 12.0001L260.232 5.76782" stroke="#766824" stroke-width="5"/>
<path d="M11.9906 386.5L262 386.5" stroke="#372601" stroke-width="5"/>
<path d="M267.5 380.5L267.5 9.97944" stroke="#9C8200" stroke-width="5"/>
<g filter="url(#filter0_i_44_13)">
<circle cx="36.5" cy="36.5" r="12.5" fill="#97810F"/>
</g>
<circle cx="36.5" cy="36.5" r="12.5" stroke="url(#paint0_linear_44_13)" stroke-width="4"/>
<g filter="url(#filter1_i_44_13)">
<circle cx="237.5" cy="36.5" r="12.5" fill="#97810F"/>
</g>
<circle cx="237.5" cy="36.5" r="12.5" stroke="url(#paint1_linear_44_13)" stroke-width="4"/>
<g filter="url(#filter2_i_44_13)">
<circle cx="36.5" cy="356.5" r="12.5" fill="#97810F"/>
</g>
<circle cx="36.5" cy="356.5" r="12.5" stroke="url(#paint2_linear_44_13)" stroke-width="4"/>
<g filter="url(#filter3_i_44_13)">
<circle cx="237.5" cy="356.5" r="12.5" fill="#97810F"/>
</g>
<circle cx="237.5" cy="356.5" r="12.5" stroke="url(#paint3_linear_44_13)" stroke-width="4"/>
<g filter="url(#filter4_d_44_13)">
<path d="M113 252.5L117.5 249H168L171 252.5V283L168 287H117.5L113 283V252.5Z" fill="#F6F7F2"/>
</g>
<g filter="url(#filter5_d_44_13)">
<path d="M65.3701 75H121.561H199.364L228 96.3158V137.882V176.783L205.307 200.23H173L170.728 203V233.5L167.5 237H117.5L112.916 233.5V200.23V176.783L139.391 151.737H167.5L170.728 148V117.5L167.5 113.901H139.391H102.5L98.3284 117.5V148L94 151.737H52L47 148V96.3158L65.3701 75Z" fill="#F6F7F2"/>
</g>
<line x1="197.887" y1="73.7904" x2="227.887" y2="95.7904" stroke="#B6B7BA" stroke-width="3"/>
<path d="M227.5 95L229.5 177" stroke="#A9A5A7" stroke-width="3"/>
<path d="M229.5 176L205.5 201" stroke="#5A5C5E" stroke-width="3"/>
<line x1="170.939" y1="203.939" x2="174.939" y2="199.939" stroke="#616062" stroke-width="3"/>
<line x1="170.5" y1="202" x2="170.5" y2="233" stroke="#B7B8AF" stroke-width="3"/>
<line x1="166.939" y1="235.939" x2="170.939" y2="231.939" stroke="#68696A" stroke-width="3"/>
<line x1="117" y1="235.5" x2="168" y2="235.5" stroke="#625520" stroke-width="3"/>
<line x1="114.061" y1="231.939" x2="118.061" y2="235.939" stroke="#43413E" stroke-width="3"/>
<line x1="114.5" y1="176" x2="114.5" y2="233" stroke="#BEBEC1" stroke-width="3"/>
<line x1="113.96" y1="177.92" x2="140.96" y2="151.92" stroke="#E7DEAF" stroke-width="3"/>
<line x1="140" y1="151.5" x2="168" y2="151.5" stroke="#FBFCFD" stroke-width="3"/>
<line x1="105.142" y1="113.912" x2="98.3171" y2="117.71" stroke="#6D6D6D" stroke-width="3"/>
<line x1="99.945" y1="147.172" x2="94.936" y2="151.172" stroke="#656463" stroke-width="3"/>
<path d="M171.5 118.5V150" stroke="#BDBDBD" stroke-width="3"/>
<line x1="96" y1="150.5" x2="52" y2="150.5" stroke="#414245" stroke-width="3"/>
<line x1="47.937" y1="146.829" x2="52.937" y2="150.829" stroke="#414142" stroke-width="3"/>
<path d="M167.5 114L172.248 119.168" stroke="#4F5050" stroke-width="3"/>
<g filter="url(#filter6_d_44_13)">
<line x1="207" y1="200.5" x2="173" y2="200.5" stroke="#3B3B3C" stroke-width="3"/>
</g>
<line x1="48.5" y1="96" x2="48.5" y2="148" stroke="#BCBDBB" stroke-width="3"/>
<line x1="99.5" y1="117" x2="99.5" y2="148" stroke="#C1BFC1" stroke-width="3"/>
<line x1="117" y1="249.5" x2="168" y2="249.5" stroke="#FBFCFC" stroke-width="3"/>
<line x1="168.061" y1="247.939" x2="172.061" y2="251.939" stroke="#B7B7B7" stroke-width="3"/>
<line x1="171.5" y1="250.984" x2="171.844" y2="282.998" stroke="#BAB9B3" stroke-width="3"/>
<line x1="171.171" y1="282.937" x2="167.171" y2="287.937" stroke="#434241" stroke-width="3"/>
<line x1="120" y1="287.5" x2="168" y2="287.5" stroke="#3B3935" stroke-width="3"/>
<line x1="166.228" y1="151.714" x2="171.228" y2="148.714" stroke="#E3E3E7" stroke-width="3"/>
<line x1="112.976" y1="281.861" x2="119.976" y2="287.861" stroke="#453D1A" stroke-width="3"/>
<line x1="112.499" y1="252.948" x2="113.499" y2="281.948" stroke="#BABCC0" stroke-width="3"/>
<line x1="117.671" y1="249.342" x2="111.671" y2="252.342" stroke="#E3E4E6" stroke-width="3"/>
<line x1="104" y1="114.5" x2="169" y2="114.5" stroke="#48484A" stroke-width="3"/>
<line x1="66.2" y1="72.9" x2="48.2" y2="96.9" stroke="#E3E4E7" stroke-width="3"/>
<line x1="65" y1="73.5" x2="199" y2="73.5" stroke="#FDFDF8" stroke-width="3"/>
<defs>
<filter id="filter0_i_44_13" x="22" y="22" width="31" height="32" filterUnits="userSpaceOnUse" color-interpolation-filters="sRGB">
<feFlood flood-opacity="0" result="BackgroundImageFix"/>
<feBlend mode="normal" in="SourceGraphic" in2="BackgroundImageFix" result="shape"/>
<feColorMatrix in="SourceAlpha" type="matrix" values="0 0 0 0 0 0 0 0 0 0 0 0 0 0 0 0 0 0 127 0" result="hardAlpha"/>
<feMorphology radius="3" operator="erode" in="SourceAlpha" result="effect1_innerShadow_44_13"/>
<feOffset dx="2" dy="4"/>
<feComposite in2="hardAlpha" operator="arithmetic" k2="-1" k3="1"/>
<feColorMatrix type="matrix" values="0 0 0 0 0.252083 0 0 0 0 0.212593 0 0 0 0 0.0498915 0 0 0 0.75 0"/>
<feBlend mode="normal" in2="shape" result="effect1_innerShadow_44_13"/>
</filter>
<filter id="filter1_i_44_13" x="223" y="22" width="31" height="32" filterUnits="userSpaceOnUse" color-interpolation-filters="sRGB">
<feFlood flood-opacity="0" result="BackgroundImageFix"/>
<feBlend mode="normal" in="SourceGraphic" in2="BackgroundImageFix" result="shape"/>
<feColorMatrix in="SourceAlpha" type="matrix" values="0 0 0 0 0 0 0 0 0 0 0 0 0 0 0 0 0 0 127 0" result="hardAlpha"/>
<feMorphology radius="3" operator="erode" in="SourceAlpha" result="effect1_innerShadow_44_13"/>
<feOffset dx="2" dy="4"/>
<feComposite in2="hardAlpha" operator="arithmetic" k2="-1" k3="1"/>
<feColorMatrix type="matrix" values="0 0 0 0 0.252083 0 0 0 0 0.212593 0 0 0 0 0.0498915 0 0 0 0.75 0"/>
<feBlend mode="normal" in2="shape" result="effect1_innerShadow_44_13"/>
</filter>
<filter id="filter2_i_44_13" x="22" y="342" width="31" height="32" filterUnits="userSpaceOnUse" color-interpolation-filters="sRGB">
<feFlood flood-opacity="0" result="BackgroundImageFix"/>
<feBlend mode="normal" in="SourceGraphic" in2="BackgroundImageFix" result="shape"/>
<feColorMatrix in="SourceAlpha" type="matrix" values="0 0 0 0 0 0 0 0 0 0 0 0 0 0 0 0 0 0 127 0" result="hardAlpha"/>
<feMorphology radius="3" operator="erode" in="SourceAlpha" result="effect1_innerShadow_44_13"/>
<feOffset dx="2" dy="4"/>
<feComposite in2="hardAlpha" operator="arithmetic" k2="-1" k3="1"/>
<feColorMatrix type="matrix" values="0 0 0 0 0.252083 0 0 0 0 0.212593 0 0 0 0 0.0498915 0 0 0 0.75 0"/>
<feBlend mode="normal" in2="shape" result="effect1_innerShadow_44_13"/>
</filter>
<filter id="filter3_i_44_13" x="223" y="342" width="31" height="32" filterUnits="userSpaceOnUse" color-interpolation-filters="sRGB">
<feFlood flood-opacity="0" result="BackgroundImageFix"/>
<feBlend mode="normal" in="SourceGraphic" in2="BackgroundImageFix" result="shape"/>
<feColorMatrix in="SourceAlpha" type="matrix" values="0 0 0 0 0 0 0 0 0 0 0 0 0 0 0 0 0 0 127 0" result="hardAlpha"/>
<feMorphology radius="3" operator="erode" in="SourceAlpha" result="effect1_innerShadow_44_13"/>
<feOffset dx="2" dy="4"/>
<feComposite in2="hardAlpha" operator="arithmetic" k2="-1" k3="1"/>
<feColorMatrix type="matrix" values="0 0 0 0 0.252083 0 0 0 0 0.212593 0 0 0 0 0.0498915 0 0 0 0.75 0"/>
<feBlend mode="normal" in2="shape" result="effect1_innerShadow_44_13"/>
</filter>
<filter id="filter4_d_44_13" x="113" y="249" width="61" height="44" filterUnits="userSpaceOnUse" color-interpolation-filters="sRGB">
<feFlood flood-opacity="0" result="BackgroundImageFix"/>
<feColorMatrix in="SourceAlpha" type="matrix" values="0 0 0 0 0 0 0 0 0 0 0 0 0 0 0 0 0 0 127 0" result="hardAlpha"/>
<feOffset dx="2" dy="5"/>
<feGaussianBlur stdDeviation="0.5"/>
<feComposite in2="hardAlpha" operator="out"/>
<feColorMatrix type="matrix" values="0 0 0 0 0 0 0 0 0 0 0 0 0 0 0 0 0 0 0.45 0"/>
<feBlend mode="normal" in2="BackgroundImageFix" result="effect1_dropShadow_44_13"/>
<feBlend mode="normal" in="SourceGraphic" in2="effect1_dropShadow_44_13" result="shape"/>
</filter>
<filter id="filter5_d_44_13" x="47" y="75" width="184" height="168" filterUnits="userSpaceOnUse" color-interpolation-filters="sRGB">
<feFlood flood-opacity="0" result="BackgroundImageFix"/>
<feColorMatrix in="SourceAlpha" type="matrix" values="0 0 0 0 0 0 0 0 0 0 0 0 0 0 0 0 0 0 127 0" result="hardAlpha"/>
<feOffset dx="2" dy="5"/>
<feGaussianBlur stdDeviation="0.5"/>
<feComposite in2="hardAlpha" operator="out"/>
<feColorMatrix type="matrix" values="0 0 0 0 0 0 0 0 0 0 0 0 0 0 0 0 0 0 0.45 0"/>
<feBlend mode="normal" in2="BackgroundImageFix" result="effect1_dropShadow_44_13"/>
<feBlend mode="normal" in="SourceGraphic" in2="effect1_dropShadow_44_13" result="shape"/>
</filter>
<filter id="filter6_d_44_13" x="169" y="199" width="42" height="11" filterUnits="userSpaceOnUse" color-interpolation-filters="sRGB">
<feFlood flood-opacity="0" result="BackgroundImageFix"/>
<feColorMatrix in="SourceAlpha" type="matrix" values="0 0 0 0 0 0 0 0 0 0 0 0 0 0 0 0 0 0 127 0" result="hardAlpha"/>
<feOffset dy="4"/>
<feGaussianBlur stdDeviation="2"/>
<feComposite in2="hardAlpha" operator="out"/>
<feColorMatrix type="matrix" values="0 0 0 0 0 0 0 0 0 0 0 0 0 0 0 0 0 0 0.25 0"/>
<feBlend mode="normal" in2="BackgroundImageFix" result="effect1_dropShadow_44_13"/>
<feBlend mode="normal" in="SourceGraphic" in2="effect1_dropShadow_44_13" result="shape"/>
</filter>
<linearGradient id="paint0_linear_44_13" x1="36.5" y1="24" x2="39.8333" y2="40.6667" gradientUnits="userSpaceOnUse">
<stop/>
<stop offset="1" stop-color="#F2D042" stop-opacity="0.87"/>
</linearGradient>
<linearGradient id="paint1_linear_44_13" x1="237.5" y1="24" x2="240.833" y2="40.6667" gradientUnits="userSpaceOnUse">
<stop/>
<stop offset="1" stop-color="#F2D042" stop-opacity="0.87"/>
</linearGradient>
<linearGradient id="paint2_linear_44_13" x1="36.5" y1="344" x2="39.8333" y2="360.667" gradientUnits="userSpaceOnUse">
<stop/>
<stop offset="1" stop-color="#F2D042" stop-opacity="0.87"/>
</linearGradient>
<linearGradient id="paint3_linear_44_13" x1="237.5" y1="344" x2="240.833" y2="360.667" gradientUnits="userSpaceOnUse">
<stop/>
<stop offset="1" stop-color="#F2D042" stop-opacity="0.87"/>
</linearGradient>
</defs>
</svg>
